<svg width="757" height="810" viewBox="0 0 757 810" fill="none" xmlns="http://www.w3.org/2000/svg">
<path d="M597.1 459.089C608.7 473.089 639.9 474.689 656.1 479.889C673.9 485.689 689.5 496.289 700.7 510.289C736.38 534.609 752.767 631.355 756.5 676.689H555.1H20C21.2 592.369 47.2333 558.622 60.1 552.289C85.7 538.689 113.3 535.289 142.9 529.289C156.3 526.489 189.7 520.089 193.7 504.889C197.7 489.689 197.3 472.889 197.5 457.289C197.7 452.089 195.9 451.689 192.3 447.689C185.1 439.489 178.9 430.489 175.9 419.889C171.5 404.089 169.7 387.489 168.1 371.289C149.9 376.289 147.1 339.689 143.9 329.489C141.7 322.289 137.9 292.489 150.7 286.889C144.7 276.089 142.7 262.689 141.3 250.689C138.1 224.289 137.3 196.889 146.9 171.689C166.9 119.889 220.5 94.2887 273.9 96.0887C326.5 97.6887 376.3 126.889 392.5 178.889C400.3 203.889 398.7 231.889 394.7 257.489C393.3 267.289 391.3 278.089 386.3 286.889C401.5 292.289 393.7 327.289 391.5 334.089C388.5 343.889 386.3 376.089 368.9 371.289C366.9 391.689 365.9 415.889 355.1 433.889C352.3 438.489 339.5 449.089 339.5 454.089C339.5 461.689 339.7 469.289 340.1 476.889C340.7 486.489 340.7 497.289 343.9 506.489C347.3 515.889 363.5 519.289 371.7 522.089C398.7 531.489 427.9 532.089 454.9 541.489C510.9 560.889 546.5 612.889 546.5 671.889C546.7 676.289 546.5 676.689 555.1 676.689L566.5 669.489C574.1 664.289 578.5 655.489 577.5 646.489C573.7 612.489 563.9 582.689 537.5 557.289C498.3 519.289 445.5 507.289 445.5 507.289C438.7 504.889 430.3 502.889 422.5 501.489C414.7 500.089 413.5 489.289 420.9 486.289C436.3 479.889 448.3 476.289 453.7 474.889C461.7 472.689 483.1 465.889 485.3 456.089C485.9 453.489 485.3 428.289 485.3 428.289C442.5 424.489 427.5 415.689 427.5 415.689C414.9 409.289 422.1 405.489 427.1 394.689C456.1 330.289 406.1 217.889 490.9 183.889C504.1 178.489 522.5 175.689 541.5 175.689C564.9 175.689 589.1 180.089 604.3 189.489C634.7 208.289 643.5 244.889 644.3 278.289C645.3 318.489 635.5 364.889 657.3 401.489C661.3 408.289 664.9 409.089 657.1 413.689C657.1 413.689 645.5 423.089 595.1 425.889C595.1 425.889 591.3 452.089 597.1 459.089Z" fill="white"/>
</svg>
