<svg width="394" height="395" viewBox="0 0 394 395" fill="none" xmlns="http://www.w3.org/2000/svg">
<path d="M60.91 10C74.96 10 87.69 15.7 96.9 24.91C106.11 34.13 111.81 46.85 111.81 60.9C111.81 74.96 106.11 87.69 96.9 96.9C87.69 106.11 74.96 111.81 60.91 111.81C46.85 111.81 34.13 106.11 24.91 96.9C15.7 87.69 10 74.96 10 60.9C10 46.85 15.7 34.12 24.91 24.91C34.13 15.7 46.85 10 60.91 10ZM333.1 283.08C347.15 283.08 359.88 288.77 369.09 297.99C378.3 307.2 384 319.92 384 333.98C384 348.04 378.3 360.76 369.09 369.98C359.88 379.19 347.15 384.89 333.1 384.89C319.04 384.89 306.31 379.19 297.1 369.98C287.89 360.76 282.19 348.04 282.19 333.98C282.19 319.92 287.89 307.2 297.1 297.99C306.31 288.77 319.04 283.08 333.1 283.08ZM197 283.08C211.05 283.08 223.78 288.77 232.99 297.99C242.21 307.2 247.91 319.92 247.91 333.98C247.91 348.04 242.21 360.76 232.99 369.98C223.78 379.19 211.05 384.89 197 384.89C182.95 384.89 170.22 379.19 161.01 369.98C151.79 360.76 146.09 348.04 146.09 333.98C146.09 319.92 151.79 307.2 161.01 297.99C170.22 288.77 182.95 283.08 197 283.08ZM60.91 283.08C74.96 283.08 87.69 288.77 96.9 297.99C106.11 307.2 111.81 319.92 111.81 333.98C111.81 348.04 106.11 360.76 96.9 369.98C87.69 379.19 74.96 384.89 60.91 384.89C46.85 384.89 34.13 379.19 24.91 369.98C15.7 360.76 10 348.04 10 333.98C10 319.92 15.7 307.2 24.91 297.99C34.13 288.77 46.85 283.08 60.91 283.08ZM333.1 146.54C347.15 146.54 359.88 152.24 369.09 161.45C378.3 170.66 384 183.39 384 197.44C384 211.5 378.3 224.22 369.09 233.44C359.88 242.65 347.15 248.35 333.1 248.35C319.04 248.35 306.31 242.65 297.1 233.44C287.89 224.22 282.19 211.5 282.19 197.44C282.19 183.39 287.89 170.66 297.1 161.45C306.31 152.24 319.04 146.54 333.1 146.54ZM197 146.54C211.05 146.54 223.78 152.24 232.99 161.45C242.21 170.66 247.91 183.39 247.91 197.44C247.91 211.5 242.21 224.22 232.99 233.44C223.78 242.65 211.05 248.35 197 248.35C182.95 248.35 170.22 242.65 161.01 233.44C151.79 224.22 146.09 211.5 146.09 197.44C146.09 183.39 151.79 170.66 161.01 161.45C170.22 152.24 182.95 146.54 197 146.54ZM60.91 146.54C74.96 146.54 87.69 152.24 96.9 161.45C106.11 170.66 111.81 183.39 111.81 197.44C111.81 211.5 106.11 224.22 96.9 233.44C87.69 242.65 74.96 248.35 60.91 248.35C46.85 248.35 34.13 242.65 24.91 233.44C15.7 224.22 10 211.5 10 197.44C10 183.39 15.7 170.66 24.91 161.45C34.13 152.24 46.85 146.54 60.91 146.54ZM333.1 10C347.15 10 359.88 15.7 369.09 24.91C378.3 34.13 384 46.85 384 60.9C384 74.96 378.3 87.69 369.09 96.9C359.88 106.11 347.15 111.81 333.1 111.81C319.04 111.81 306.31 106.11 297.1 96.9C287.89 87.69 282.19 74.96 282.19 60.9C282.19 46.85 287.89 34.12 297.1 24.91C306.31 15.7 319.04 10 333.1 10ZM197 10C211.05 10 223.78 15.7 232.99 24.91C242.21 34.13 247.91 46.85 247.91 60.9C247.91 74.96 242.21 87.69 232.99 96.9C223.78 106.11 211.05 111.81 197 111.81C182.95 111.81 170.22 106.11 161.01 96.9C151.79 87.69 146.09 74.96 146.09 60.9C146.09 32.79 168.89 10 197 10Z" fill="white"/>
</svg>
